<svg width="180" height="180" viewBox="0 0 180 180" fill="none" xmlns="http://www.w3.org/2000/svg">
<path d="M0 90C0 66.7381 0 55.1072 2.94314 45.6623C9.29823 25.2681 25.2681 9.29823 45.6623 2.94314C55.1072 0 66.7381 0 90 0V0C113.262 0 124.893 0 134.338 2.94314C154.732 9.29823 170.702 25.2681 177.057 45.6623C180 55.1072 180 66.7381 180 90V90C180 113.262 180 124.893 177.057 134.338C170.702 154.732 154.732 170.702 134.338 177.057C124.893 180 113.262 180 90 180V180C66.7381 180 55.1072 180 45.6623 177.057C25.2681 170.702 9.29823 154.732 2.94314 134.338C0 124.893 0 113.262 0 90V90Z" fill="#1F2852"/>
<rect opacity="0.5" x="69.375" y="82.5" width="41.25" height="7.5" rx="3.75" fill="white"/>
<rect opacity="0.5" x="69.375" y="93.75" width="41.25" height="7.5" rx="3.75" fill="white"/>
<rect x="86.25" y="106.875" width="24.375" height="7.5" rx="3.75" fill="white"/>
<path fill-rule="evenodd" clip-rule="evenodd" d="M101.862 52.5H120C124.142 52.5 127.5 55.8579 127.5 60V129.375C127.5 133.517 124.142 136.875 120 136.875H60C55.8579 136.875 52.5 133.517 52.5 129.375V60C52.5 55.8579 55.8579 52.5 60 52.5H78.1381C80.2446 48.0657 84.7643 45 90 45C95.2357 45 99.7554 48.0657 101.862 52.5ZM106.875 69.375V61.875H118.125V127.5H61.875V61.875H73.125V69.375H106.875ZM90 63.75C93.1066 63.75 95.625 61.2316 95.625 58.125C95.625 55.0184 93.1066 52.5 90 52.5C86.8934 52.5 84.375 55.0184 84.375 58.125C84.375 61.2316 86.8934 63.75 90 63.75Z" fill="white"/>
</svg>
