<svg xmlns="http://www.w3.org/2000/svg" viewBox="0 0 400 400"><path fill="#a7aaad" d="M0 0v400h400V0H0zm336.6 118.9c6.7-.1 13.4 5.4 13.4 13.6-.1 7.4-5.9 13.4-13.4 13.4-8.1 0-13.6-6.7-13.5-13.7 0-7.3 6.1-13.5 13.5-13.3zm-124.4 6.5c-12 48.8-24 97.6-36.1 146.3 0 .2-.2.2-.2.4-.8.1-6 .2-10.4.2h-1.9c-2.1 0-3.7-.1-4.1-.1-.2-.2-.3-.4-.3-.6-.1-.2-.1-.5-.2-.7-1.5-6.6-2.9-13.2-4.4-19.8-2.8-12.2-5.5-24.4-8.2-36.6-2.3-10.2-4.5-20.4-6.8-30.6-.9-4.2-1.9-8.3-2.8-12.5-.6-3-1.1-6.1-1.7-9.1-1-5.5-2-11.2-3-16.7-.1-.4-.2-.8-.3-1.5-.2.6-.3.8-.4 1.1-1.5 9-3.4 17.9-5.2 26.8-.9 4.7-2.1 9.5-3.2 14.2-2.8 12.3-5.7 24.6-8.5 36.9-3.6 15.8-7.3 31.6-11 47.5-.1.5-.3 1-.4 1.5-.2.1-.5.2-.6.2H86.7c-.6-.3-.6-.8-.7-1.2-1.2-4.8-2.3-9.6-3.5-14.5-3.6-15.4-7.4-30.9-11-46.4-3.9-16.4-7.8-32.7-11.7-49.1-2.8-11.5-5.5-22.9-8.1-34.3-.2-.7-.5-1.4-.4-2.1 1.2-.2 11.9-.3 14-.1.1.3.2.7.4 1.1 2.4 10 4.7 19.9 7 29.9 2.5 10.7 5 21.4 7.5 32 1.8 7.8 3.7 15.6 5.5 23.3 1.7 7.4 3.2 14.8 4.7 22.2 1.4 6.8 2.8 13.7 4.3 20.5.1.5.2.9.4 1.3.1.2.3.2.6.3.2-.6.3-1.1.4-1.7 1.8-13.1 4.4-25.9 7.4-38.8 4.3-18.6 8.7-37.2 13.1-55.8l7.8-33.3c.1-.5.2-.9.4-1.4 1.7-.1 3.3 0 5-.1h5c1.7 0 3.3-.1 5 .1.2.6.3 1.2.5 1.7 3.8 16.1 7.6 32.2 11.4 48.2 3 12.7 6 25.3 8.9 38 1.3 5.5 2.3 11.2 3.4 16.8 1.3 6.9 2.5 13.8 3.7 20.6.3 1.7.6 3.2.9 4.9.1.3.2.6.7.6l.3-1.2c.8-5.1 1.8-10 2.9-15 3.9-18.1 8.2-36.1 12.4-54.3 3.6-15.2 7.1-30.4 10.7-45.6 1-4.5 2.1-9 3.2-13.5.1-.3.2-.7.4-1.1 1.2-.2 2.4-.1 3.5-.1h6.8c1.2 0 2.4-.2 3.6.2-.8.5-.8.7-.9 1zm86.3 124.5c-3.6 11.5-11.3 19.1-22.8 22.8-3.2 1-6.6 1.7-10 2-5.2.6-10.4.5-15.7-.1-7-.7-13.8-2.7-20.2-5.9-1.2-.6-2.4-1.2-3.5-2.1.6-1.6 5.4-9.7 6.2-10.7.3.2.6.2.9.5 1.7 1.1 3.5 1.8 5.4 2.5 3.2 1.1 6.3 2.1 9.7 2.8 5.1.9 10.1 1.3 15.3.8 12.9-1.4 19.2-10 21.3-18 1.5-5.6 1.6-11.3.2-16.9-.9-3.9-2.8-7.3-5.4-10.2-1.8-2-3.8-3.8-5.9-5.4-4.2-3.3-8.7-6.2-13.3-8.9-4.7-2.8-9.3-5.5-13.8-8.6-2.9-2.1-5.9-4.1-8.4-6.6-3.7-3.6-6.7-7.7-8.9-12.4-1.8-3.9-2.8-8.1-3.2-12.3-.2-2.5-.2-5.1-.1-7.7.6-8.8 4.2-16.2 10.6-22.3 5.9-5.5 12.8-8.9 20.6-10.4 5.3-1 10.7-1.2 16.1-.7 7.4.6 14.5 2.5 21.1 5.9 1.3.7 2.6 1.4 3.9 2.2.3.2.6.5.9.6-.5 1.3-3.8 7.1-5.7 10.1-.2.2-.3.4-.6.6l-1.2-.6c-5.4-3.1-11.1-5.3-17.2-6.2-5.6-.9-11.2-.9-16.7.5-2.8.7-5.4 1.7-7.8 3.3-5.9 3.9-9.3 9.3-10.2 16.2-.6 4.5-.2 8.9 1.2 13.3 1.1 3.5 3 6.5 5.5 9 2.6 2.6 5.5 4.8 8.5 7 3.3 2.3 6.8 4.4 10.3 6.5 5.8 3.4 11.5 7 16.8 11 2.3 1.7 4.6 3.6 6.6 5.6 5.9 5.9 9.5 13 10.6 21.2 1.4 7.2 1.1 14.5-1.1 21.6zm38 26.4c-7.5.1-13.5-6.2-13.5-13.5 0-6.7 5.4-13.5 13.5-13.4 7.4 0 13.4 5.9 13.4 13.4.1 8-6.5 13.6-13.4 13.5zm-.1-64.8c-7.9-.1-13.4-6.6-13.4-13.4 0-7.7 6.4-13.7 13.5-13.5 6.4-.2 13.4 5.1 13.5 13.5 0 7.4-6.1 13.5-13.6 13.4z"></path></svg>