<svg xmlns="http://www.w3.org/2000/svg" viewBox="0 0 48 48" width="48" height="48">
  <circle cx="24" cy="24" r="24" fill="#25D366"/>
  <path fill="#fff" d="M24.004 10C16.27 10 10 16.268 10 24c0 2.516.664 4.876 1.824 6.92L10 38l7.312-1.8A13.94 13.94 0 0024.004 38C31.732 38 38 31.732 38 24.004 38 16.27 31.732 10 24.004 10zm0 25.6a11.54 11.54 0 01-5.88-1.608l-.42-.252-4.352 1.14 1.16-4.236-.276-.432A11.54 11.54 0 0112.4 24c0-6.4 5.204-11.6 11.604-11.6S35.6 17.6 35.6 24c0 6.396-5.2 11.6-11.596 11.6zm6.364-8.684c-.348-.176-2.06-1.016-2.38-1.132-.32-.116-.552-.176-.784.176-.232.348-.9 1.132-1.104 1.364-.2.232-.404.26-.752.088-.348-.176-1.468-.54-2.796-1.724-1.032-.924-1.728-2.064-1.932-2.412-.2-.348-.02-.536.152-.708.156-.156.348-.404.524-.608.172-.2.228-.348.344-.58.116-.232.056-.436-.028-.612-.088-.172-.784-1.892-1.076-2.588-.284-.68-.572-.588-.784-.6-.2-.008-.436-.012-.668-.012s-.608.088-.928.436c-.316.348-1.216 1.188-1.216 2.896s1.244 3.36 1.42 3.592c.172.232 2.448 3.736 5.932 5.24.828.356 1.476.572 1.98.732.832.264 1.588.228 2.188.14.668-.1 2.06-.844 2.348-1.66.292-.816.292-1.516.204-1.664-.084-.148-.316-.232-.664-.408z"/>
</svg>
