<svg width="1080" height="175" viewBox="0 0 1080 175" fill="none" xmlns="http://www.w3.org/2000/svg">
<g clip-path="url(#clip0_106_52)">
<path d="M243.12 138.36L206 26.36H227.6L260.72 127.64H250L284.4 26.36H303.6L337.04 127.64H326.64L360.56 26.36H380.4L343.28 138.36H321.2L290.64 47H296.4L265.36 138.36H243.12Z" fill="#0396A1"/>
<path d="M377.911 138.36L428.311 26.36H448.791L499.351 138.36H477.591L434.231 37.4H442.551L399.351 138.36H377.911ZM401.111 112.44L406.711 96.12H467.191L472.791 112.44H401.111Z" fill="#0396A1"/>
<path d="M518.075 138.36V26.36H524.955L604.795 128.28H601.115V26.36H609.275V138.36H602.555L522.555 36.44H526.235V138.36H518.075Z" fill="#0396A1"/>
<path d="M678.467 139C670.467 139 663.321 137.187 657.027 133.56C650.841 129.933 645.881 124.92 642.147 118.52C638.521 112.12 636.707 104.813 636.707 96.6C636.707 88.28 638.521 80.9733 642.147 74.68C645.881 68.28 650.841 63.2667 657.027 59.64C663.321 56.0133 670.467 54.2 678.467 54.2C686.467 54.2 693.614 56.0133 699.908 59.64C706.201 63.2667 711.161 68.28 714.788 74.68C718.414 80.9733 720.227 88.28 720.227 96.6C720.227 104.813 718.414 112.12 714.788 118.52C711.161 124.92 706.201 129.933 699.908 133.56C693.614 137.187 686.467 139 678.467 139ZM678.467 131.8C684.867 131.8 690.628 130.36 695.747 127.48C700.867 124.493 704.867 120.333 707.747 115C710.628 109.667 712.068 103.533 712.068 96.6C712.068 89.56 710.628 83.4267 707.747 78.2C704.867 72.8667 700.867 68.76 695.747 65.88C690.628 62.8933 684.867 61.4 678.467 61.4C672.068 61.4 666.307 62.8933 661.188 65.88C656.174 68.76 652.174 72.8667 649.188 78.2C646.307 83.4267 644.867 89.56 644.867 96.6C644.867 103.533 646.307 109.667 649.188 115C652.174 120.333 656.174 124.493 661.188 127.48C666.307 130.36 672.068 131.8 678.467 131.8Z" fill="#0396A1"/>
<path d="M769.366 139C762.006 139 756.353 136.973 752.406 132.92C748.566 128.867 746.646 123.32 746.646 116.28V36.6H754.646V115.48C754.646 120.813 755.98 124.92 758.646 127.8C761.313 130.68 765.153 132.12 770.166 132.12C775.393 132.12 779.713 130.573 783.126 127.48L786.486 133.08C784.353 135.107 781.74 136.6 778.646 137.56C775.66 138.52 772.566 139 769.366 139ZM731.286 61.72V54.84H781.206V61.72H731.286Z" fill="#0396A1"/>
<path d="M808.796 138.36V54.84H816.796V138.36H808.796ZM812.796 34.52C810.983 34.52 809.436 33.88 808.156 32.6C806.876 31.32 806.236 29.8267 806.236 28.12C806.236 26.3067 806.876 24.76 808.156 23.48C809.436 22.2 810.983 21.56 812.796 21.56C814.716 21.56 816.263 22.2 817.436 23.48C818.716 24.6533 819.356 26.1467 819.356 27.96C819.356 29.7733 818.716 31.32 817.436 32.6C816.263 33.88 814.716 34.52 812.796 34.52Z" fill="#0396A1"/>
<path d="M852.115 138.36V42.04C852.115 35.1067 854.088 29.56 858.035 25.4C862.088 21.1333 867.848 19 875.315 19C878.408 19 881.448 19.48 884.435 20.44C887.422 21.2933 889.875 22.6267 891.795 24.44L888.595 30.52C886.995 28.92 885.075 27.7467 882.835 27C880.595 26.2533 878.195 25.88 875.635 25.88C870.515 25.88 866.622 27.32 863.955 30.2C861.288 32.9733 859.955 37.1333 859.955 42.68V56.76L860.115 60.6V138.36H852.115ZM836.755 61.72V54.84H886.675V61.72H836.755ZM902.995 138.36V54.84H910.995V138.36H902.995ZM906.995 34.52C905.182 34.52 903.635 33.88 902.355 32.6C901.075 31.32 900.435 29.8267 900.435 28.12C900.435 26.3067 901.075 24.76 902.355 23.48C903.635 22.2 905.182 21.56 906.995 21.56C908.915 21.56 910.462 22.2 911.635 23.48C912.915 24.6533 913.555 26.1467 913.555 27.96C913.555 29.7733 912.915 31.32 911.635 32.6C910.462 33.88 908.915 34.52 906.995 34.52Z" fill="#0396A1"/>
<path d="M978.654 139C970.227 139 962.76 137.187 956.254 133.56C949.854 129.933 944.787 124.92 941.054 118.52C937.427 112.12 935.614 104.813 935.614 96.6C935.614 88.28 937.32 80.9733 940.734 74.68C944.254 68.28 949.054 63.2667 955.134 59.64C961.214 56.0133 968.04 54.2 975.614 54.2C983.187 54.2 989.96 55.96 995.934 59.48C1002.01 63 1006.76 67.96 1010.17 74.36C1013.69 80.6533 1015.45 87.96 1015.45 96.28C1015.45 96.6 1015.4 96.9733 1015.29 97.4C1015.29 97.72 1015.29 98.0933 1015.29 98.52H941.534V92.28H1010.97L1007.77 95.32C1007.88 88.8133 1006.49 83 1003.61 77.88C1000.84 72.6533 997.054 68.6 992.254 65.72C987.454 62.7333 981.907 61.24 975.614 61.24C969.427 61.24 963.88 62.7333 958.974 65.72C954.174 68.6 950.387 72.6533 947.614 77.88C944.84 83 943.454 88.8667 943.454 95.48V96.92C943.454 103.747 944.947 109.827 947.934 115.16C951.027 120.387 955.24 124.493 960.574 127.48C965.907 130.36 971.987 131.8 978.814 131.8C984.147 131.8 989.107 130.84 993.694 128.92C998.387 127 1002.33 124.067 1005.53 120.12L1010.17 125.4C1006.55 129.88 1001.96 133.293 996.414 135.64C990.974 137.88 985.054 139 978.654 139Z" fill="#0396A1"/>
<path d="M1040.2 138.36V54.84H1047.88V77.72L1047.08 75.16C1049.43 68.44 1053.38 63.2667 1058.92 59.64C1064.47 56.0133 1071.4 54.2 1079.72 54.2V62.04C1079.4 62.04 1079.08 62.04 1078.76 62.04C1078.44 61.9333 1078.12 61.88 1077.8 61.88C1068.52 61.88 1061.27 64.8133 1056.04 70.68C1050.82 76.44 1048.2 84.4933 1048.2 94.84V138.36H1040.2Z" fill="#0396A1"/>
<path d="M11.8125 0C2.16125 0 0 7.94167 0 17.7072V123.95C0 133.716 7.84875 141.657 17.5 141.657H43.75V175L98.6738 141.657H157.5C167.151 141.657 175 133.716 175 123.95V97.3894H157.5V123.95H93.8262L61.25 143.729V123.95H17.5V17.7072H78.75V0H11.8125Z" fill="#0396A1"/>
<path d="M96.0733 0V17.7439C112.469 17.7564 127.89 24.2127 139.48 35.9395C151.07 47.6663 157.45 63.2706 157.463 79.86H174.999C174.993 58.5209 166.783 38.4681 151.882 23.3908C136.981 8.31353 117.163 0.00627354 96.0733 0Z" fill="#0396A1"/>
<path d="M96.0671 35.494L96.0795 53.2504C103.099 53.2378 109.703 56.0048 114.676 61.0369C119.649 66.0689 122.384 72.7511 122.371 79.8537L139.92 79.8662C139.92 68.0202 135.369 56.877 127.078 48.4881C118.787 40.0993 107.775 35.494 96.0671 35.494Z" fill="#0396A1"/>
<ellipse cx="95.6667" cy="79.092" rx="8.75" ry="8.85359" fill="#0396A1"/>
</g>
<defs>
<clipPath id="clip0_106_52">
<rect width="1080" height="175" fill="white"/>
</clipPath>
</defs>
</svg>
